name Walk4.mot
datacolumns 19
datarows 17
range 0.63500000 0.71500000
endheader

                time	   L_ground_force_vx	   L_ground_force_vy	   L_ground_force_vz	   L_ground_force_px	   L_ground_force_py	   L_ground_force_pz	   R_ground_force_vx	   R_ground_force_vy	   R_ground_force_vz	   R_ground_force_px	   R_ground_force_py	   R_ground_force_pz	   L_ground_torque_x	   L_ground_torque_y	   L_ground_torque_z	   R_ground_torque_x	   R_ground_torque_y	   R_ground_torque_z	
          0.63500000	         -3.41951607	         89.21123221	          0.31095913	         -0.08353099	          0.00000000	         -0.00545238	         -0.00000000	          0.00000000	          0.00000000	          0.00000000	          0.00000000	          0.00000000	          0.00000000	         -0.08512331	          0.00000000	          0.00000000	          0.00000000	          0.00000000	
          0.64000000	         -7.09134992	        132.43870219	          1.02549221	         -0.18142666	          0.00000000	         -0.01258957	         -0.00000000	          0.00000000	          0.00000000	          0.00000000	          0.00000000	          0.00000000	          0.00000000	         -0.09690248	          0.00000000	          0.00000000	          0.00000000	          0.00000000	
          0.64500000	        -12.29274059	        176.05980861	          1.32882635	         -0.26717099	          0.00000000	         -0.01884307	         -0.00000000	          0.00000000	          0.00000000	          0.00000000	          0.00000000	          0.00000000	          0.00000000	         -0.09797237	          0.00000000	          0.00000000	          0.00000000	          0.00000000	
          0.65000000	        -19.05261773	        218.36406330	          1.25190139	         -0.33816893	          0.00000000	         -0.02404431	         -0.00000000	          0.00000000	          0.00000000	         -0.00000000	          0.00000000	         -0.00000000	          0.00000000	         -0.08466329	          0.00000000	          0.00000000	          0.00000000	          0.00000000	
          0.65500000	        -27.14774751	        258.38083343	          0.96164762	         -0.39391157	          0.00000000	         -0.02818880	         -0.00000000	          0.00000000	          0.00000000	         -0.00000000	          0.00000000	         -0.00000000	          0.00000000	         -0.05431281	          0.00000000	          0.00000000	          0.00000000	          0.00000000	
          0.66000000	        -36.13196149	        295.65506494	          0.67245545	         -0.43527335	          0.00000000	         -0.03137290	         -0.00000000	         -0.00000000	          0.00000000	         -0.00000000	          0.00000000	         -0.00000000	          0.00000000	         -0.00668399	          0.00000000	          0.00000000	          0.00000000	          0.00000000	
          0.66500000	        -45.45611935	        330.08982986	          0.56837768	         -0.46394381	          0.00000000	         -0.03374355	         -0.00000000	         -0.00000000	          0.00000000	         -0.00000000	          0.00000000	         -0.00000000	          0.00000000	          0.05577327	          0.00000000	          0.00000000	          0.00000000	          0.00000000	
          0.67000000	        -54.65885210	        361.89088227	          0.77719645	         -0.48199456	          0.00000000	         -0.03546211	         -0.00000000	         -0.00000001	          0.00000000	         -0.00000000	          0.00000000	         -0.00000000	          0.00000000	          0.12915899	          0.00000000	          0.00000000	          0.00000000	          0.00000000	
          0.67500000	        -63.53684251	        391.46293488	          1.37673615	         -0.49157478	          0.00000000	         -0.03668308	         -0.00000000	         -0.00000001	         -0.00000000	         -0.00000000	          0.00000000	         -0.00000000	          0.00000000	          0.20972344	          0.00000000	          0.00000000	          0.00000000	          0.00000000	
          0.68000000	        -72.14426674	        419.27618454	          2.39742115	         -0.49471310	          0.00000000	         -0.03754029	          0.00000000	         -0.00000002	         -0.00000000	         -0.00000000	          0.00000000	         -0.00000000	          0.00000000	          0.29537754	          0.00000000	          0.00000000	          0.00000000	          0.00000000	
          0.68500000	        -80.62462641	        445.77076955	          3.81767304	         -0.49321295	          0.00000000	         -0.03814107	          0.00000000	         -0.00000002	         -0.00000000	         -0.00000000	          0.00000000	         -0.00000000	          0.00000000	          0.38579985	          0.00000000	          0.00000000	          0.00000000	          0.00000000	
          0.69000000	        -89.04359358	        471.28408207	          5.56899747	         -0.48860747	          0.00000000	         -0.03856734	          0.00000000	         -0.00000003	         -0.00000000	         -0.00000000	          0.00000000	         -0.00000000	          0.00000000	          0.48260462	          0.00000000	          0.00000000	          0.00000000	          0.00000000	
          0.69500000	        -97.33500735	        495.99988684	          7.55581141	         -0.48214554	          0.00000000	         -0.03887658	          0.00000000	         -0.00000004	         -0.00000000	         -0.00000000	          0.00000000	         -0.00000000	          0.00000000	          0.58890286	          0.00000000	          0.00000000	         -0.00000000	          0.00000000	
          0.70000000	       -105.34671761	        519.95222189	          9.69288190	         -0.47479994	          0.00000000	         -0.03910952	          0.00000000	         -0.00000005	         -0.00000000	         -0.00000000	          0.00000000	         -0.00000000	          0.00000000	          0.70825098	          0.00000000	          0.00000000	         -0.00000000	          0.00000000	
          0.70500000	       -112.90347094	        543.08213311	         11.92154980	         -0.46728838	          0.00000000	         -0.03929584	          0.00000001	         -0.00000005	         -0.00000000	         -0.00000000	          0.00000000	         -0.00000000	          0.00000000	          0.84427514	          0.00000000	          0.00000000	         -0.00000000	          0.00000000	
          0.71000000	       -119.83663969	        565.29076424	         14.20718816	         -0.46010953	          0.00000000	         -0.03945615	          0.00000001	         -0.00000006	         -0.00000000	         -0.00000000	          0.00000000	         -0.00000000	          0.00000000	          0.99887848	          0.00000000	          0.00000000	         -0.00000000	          0.00000000	
          0.71500000	       -125.99052299	        586.49516575	         16.54145732	         -0.45358225	          0.00000000	         -0.03960449	          0.00000001	         -0.00000006	         -0.00000000	         -0.00000000	          0.00000000	         -0.00000000	          0.00000000	          1.17122547	          0.00000000	          0.00000000	         -0.00000000	          0.00000000	
